<svg width="256" height="48" viewBox="0 0 256 48" fill="none" xmlns="http://www.w3.org/2000/svg">
    <path
        d="M131.448 15.7747C129.818 14.7338 127.963 14.1907 125.836 14.1907C124.795 14.1907 123.799 14.3717 122.849 14.6885C121.898 15.0053 121.083 15.4579 120.314 16.001C119.59 16.5441 119.002 17.1325 118.504 17.7661C118.458 17.8114 118.413 17.9019 118.368 17.9472V16.8157C118.368 16.1821 118.142 15.639 117.689 15.1864C117.282 14.7338 116.739 14.5075 116.105 14.5075C115.426 14.5075 114.883 14.7338 114.476 15.1864C114.068 15.639 113.842 16.1821 113.842 16.8157V45.1478C113.842 45.8266 114.068 46.3697 114.476 46.7771C114.883 47.2297 115.426 47.4559 116.105 47.4559C116.739 47.4559 117.282 47.2297 117.689 46.7771C118.142 46.3697 118.368 45.8266 118.368 45.1478V35.3266C118.821 35.8697 119.364 36.3675 119.997 36.8654C120.767 37.4537 121.672 37.9063 122.713 38.2684C123.754 38.6305 124.84 38.8115 125.971 38.8115C128.008 38.8115 129.864 38.2684 131.493 37.2275C133.122 36.1865 134.435 34.7382 135.385 32.8826C136.336 31.027 136.834 28.8546 136.834 26.4558C136.834 24.0571 136.336 21.9299 135.385 20.1196C134.435 18.264 133.122 16.8157 131.448 15.7747ZM131.538 30.6649C130.95 31.8869 130.09 32.8826 129.049 33.6067C128.008 34.2856 126.741 34.6477 125.338 34.6477C123.89 34.6477 122.622 34.2856 121.536 33.6067C120.495 32.8826 119.635 31.8869 119.047 30.6649C118.458 29.3977 118.142 27.9946 118.142 26.4558C118.142 24.8718 118.458 23.514 119.047 22.292C119.635 21.07 120.495 20.1196 121.536 19.4407C122.622 18.7166 123.89 18.3545 125.338 18.3545C126.741 18.3545 128.008 18.7166 129.049 19.4407C130.09 20.1196 130.95 21.1153 131.538 22.3373C132.172 23.5593 132.489 24.917 132.489 26.4558C132.489 27.9946 132.172 29.3977 131.538 30.6649Z"
        fill="currentColor"></path>
    <path
        d="M81.4829 23.2423C80.5778 22.5182 79.4463 21.9298 78.1338 21.4772C76.8213 21.0247 75.373 20.6173 73.6984 20.2553C72.3406 19.9385 71.1187 19.5764 70.0777 19.169C69.0367 18.7617 68.1768 18.2186 67.5885 17.5397C67.0001 16.8609 66.7285 16.0462 66.7285 15.0052C66.7285 14.1453 67.0001 13.3759 67.4979 12.7423C67.9958 12.0634 68.7652 11.5656 69.7156 11.2035C70.6661 10.7962 71.8428 10.6151 73.2006 10.6151C74.0605 10.6151 74.9204 10.7509 75.8256 11.0224C76.776 11.294 77.6359 11.6561 78.4506 12.0634C79.2653 12.4707 79.8989 12.9233 80.3967 13.4212C80.7135 13.6475 81.0756 13.7832 81.4829 13.7832C82.0713 13.7832 82.5692 13.5569 82.9765 13.1044C83.4291 12.6065 83.6554 12.1087 83.6554 11.5656C83.6554 10.8414 83.2933 10.1625 82.5692 9.52891C81.5282 8.53321 80.2157 7.76381 78.5411 7.17544C76.8665 6.58708 75.1014 6.27026 73.2006 6.27026C71.1187 6.27026 69.263 6.63235 67.5885 7.35649C65.9139 8.08063 64.6014 9.12158 63.6509 10.4341C62.7005 11.7466 62.2027 13.3307 62.2027 15.1863C62.2027 16.544 62.429 17.7208 62.8815 18.7617C63.3341 19.8027 63.9678 20.6626 64.8277 21.432C65.6876 22.1561 66.6833 22.7445 67.86 23.2423C69.082 23.7402 70.4398 24.1023 71.9333 24.3738C73.5626 24.6906 74.9657 25.098 76.0971 25.5958C77.2739 26.0484 78.179 26.6368 78.7674 27.3609C79.401 28.0398 79.7178 28.945 79.7178 30.0312C79.7178 30.8911 79.401 31.6605 78.8127 32.3394C78.2243 33.0183 77.4096 33.5161 76.3687 33.9234C75.373 34.3308 74.2868 34.5118 73.0648 34.5118C71.3902 34.5118 69.8967 34.2402 68.6294 33.6971C67.4074 33.154 66.1854 32.3394 65.054 31.2984C64.6466 30.9816 64.194 30.8006 63.6962 30.8006C63.0626 30.8006 62.5195 31.0269 62.1121 31.4795C61.7048 31.932 61.4785 32.4299 61.4785 33.0183C61.4785 33.3803 61.569 33.7424 61.7048 34.1045C61.8858 34.4213 62.1574 34.7381 62.4742 34.9644C64.013 36.3674 65.6423 37.3631 67.3169 37.9515C68.9915 38.5398 70.9376 38.8567 73.11 38.8567C75.1467 38.8567 77.0023 38.4946 78.6769 37.7252C80.3515 36.9558 81.7092 35.9148 82.7502 34.5571C83.7911 33.1993 84.289 31.6152 84.289 29.8049C84.289 28.2208 84.0627 26.9083 83.5648 25.8674C83.067 24.8264 82.3881 23.9212 81.4829 23.2423Z"
        fill="currentColor"></path>
    <path
        d="M106.196 14.5979C105.517 14.5979 104.974 14.8242 104.566 15.2768C104.159 15.6841 103.933 16.2272 103.933 16.9061V28.8092C103.933 30.7553 103.48 32.2488 102.53 33.1993C101.579 34.1497 100.221 34.6476 98.4111 34.6476C96.646 34.6476 95.2882 34.1497 94.3378 33.1993C93.4326 32.2488 92.98 30.7553 92.98 28.8092V16.9061C92.98 16.2272 92.7537 15.6841 92.3011 15.2768C91.8938 14.8242 91.3507 14.5979 90.717 14.5979C90.0382 14.5979 89.4951 14.8242 89.0877 15.2768C88.6804 15.6841 88.4541 16.2272 88.4541 16.9061V28.8092C88.4541 31.932 89.314 34.4213 91.0338 36.1864C92.7989 37.9515 95.2429 38.8114 98.4111 38.8114C101.624 38.8114 104.068 37.9515 105.833 36.1864C107.599 34.4213 108.459 31.932 108.459 28.8092V16.9061C108.459 16.2272 108.232 15.6841 107.78 15.2768C107.372 14.8242 106.829 14.5979 106.196 14.5979Z"
        fill="currentColor"></path>
    <path
        d="M224.863 14.236C224.23 14.236 223.687 14.4623 223.234 14.9148C222.827 15.3674 222.6 15.9105 222.6 16.5442V17.4041C222.284 17.042 221.921 16.6347 221.469 16.3179C220.654 15.639 219.704 15.0959 218.572 14.6886C217.486 14.2812 216.309 14.0549 214.997 14.0549C212.96 14.0549 211.15 14.598 209.475 15.639C207.846 16.6799 206.533 18.1735 205.583 20.0291C204.633 21.8847 204.135 24.0119 204.135 26.4559C204.135 28.8546 204.633 30.9818 205.583 32.8374C206.533 34.693 207.846 36.1865 209.521 37.2727C211.195 38.3137 213.051 38.8568 215.133 38.8568C216.309 38.8568 217.396 38.6758 218.437 38.2684C219.478 37.8611 220.337 37.318 221.107 36.7296C221.695 36.2318 222.193 35.6887 222.6 35.1908V36.096C222.6 36.7749 222.827 37.318 223.234 37.7706C223.687 38.1779 224.23 38.4042 224.863 38.4042C225.542 38.4042 226.085 38.1779 226.493 37.7706C226.9 37.318 227.126 36.7749 227.126 36.096V16.5442C227.126 15.8653 226.9 15.3222 226.493 14.9148C226.085 14.4623 225.542 14.236 224.863 14.236ZM219.387 33.6068C218.301 34.3309 217.034 34.693 215.631 34.693C214.228 34.693 213.006 34.3309 211.919 33.6068C210.878 32.8826 210.018 31.8869 209.385 30.6649C208.796 29.3977 208.48 27.9947 208.48 26.4559C208.48 24.8718 208.796 23.4688 209.385 22.2468C210.018 21.0248 210.878 20.0291 211.919 19.305C213.006 18.5808 214.228 18.2188 215.631 18.2188C217.034 18.2188 218.301 18.5808 219.387 19.305C220.473 20.0291 221.333 21.0248 221.921 22.2468C222.51 23.4688 222.827 24.8718 222.827 26.4559C222.827 27.9947 222.51 29.3977 221.921 30.6649C221.333 31.8869 220.473 32.8826 219.387 33.6068Z"
        fill="currentColor"></path>
    <path
        d="M254.552 20.0291C253.601 18.1735 252.289 16.6799 250.614 15.639C248.985 14.598 247.129 14.0549 245.002 14.0549C243.961 14.0549 242.965 14.2359 242.015 14.598C241.064 14.9148 240.25 15.3674 239.48 15.9558C238.756 16.5441 238.168 17.1325 237.67 17.7661C237.625 17.8114 237.579 17.9019 237.534 17.9472V7.2208C237.534 6.54192 237.308 5.99881 236.855 5.59148C236.448 5.13889 235.905 4.9126 235.271 4.9126C234.592 4.9126 234.049 5.13889 233.642 5.59148C233.235 5.99881 233.008 6.54192 233.008 7.2208V36.458C233.008 37.1369 233.235 37.68 233.642 38.0874C234.049 38.4947 234.592 38.721 235.271 38.721C235.905 38.721 236.448 38.4947 236.855 38.0874C237.308 37.6348 237.534 37.0917 237.534 36.458V35.3266C237.987 35.8697 238.53 36.3675 239.164 36.8654C239.933 37.4537 240.838 37.9063 241.879 38.3137C242.92 38.6757 244.006 38.8568 245.138 38.8568C247.174 38.8568 249.03 38.3136 250.659 37.2727C252.289 36.1865 253.601 34.6929 254.552 32.8373C255.502 30.9817 256 28.8093 256 26.4106C256 24.0118 255.547 21.8394 254.552 20.0291ZM250.705 30.6196C250.116 31.8869 249.256 32.8826 248.215 33.6067C247.174 34.3309 245.907 34.6929 244.504 34.6929C243.056 34.6929 241.789 34.3309 240.702 33.6067C239.661 32.8826 238.801 31.8869 238.213 30.6649C237.625 29.3977 237.308 27.9946 237.308 26.4106C237.308 24.8265 237.625 23.4687 238.213 22.2468C238.801 21.0248 239.661 20.0291 240.702 19.3049C241.789 18.5808 243.056 18.2187 244.504 18.2187C245.907 18.2187 247.174 18.5808 248.215 19.3049C249.256 20.0291 250.116 21.0248 250.705 22.2468C251.338 23.4687 251.655 24.8265 251.655 26.4106C251.655 27.9494 251.338 29.3524 250.705 30.6196Z"
        fill="currentColor"></path>
    <path
        d="M198.657 19.0333C199.245 19.0333 199.743 18.8523 200.151 18.445C200.558 18.0376 200.784 17.585 200.784 16.9967C200.784 16.4083 200.558 15.9105 200.151 15.5031C199.743 15.0958 199.245 14.8695 198.657 14.8695H195.036V11.294C195.036 10.6152 194.81 10.0721 194.403 9.66472C193.995 9.21213 193.452 8.98584 192.773 8.98584C192.14 8.98584 191.597 9.21213 191.144 9.66472C190.737 10.0721 190.51 10.6152 190.51 11.294V14.8695H188.021C187.433 14.8695 186.89 15.0505 186.482 15.4579C186.075 15.8652 185.894 16.363 185.894 16.9514C185.894 17.5398 186.075 18.0376 186.482 18.445C186.89 18.8523 187.433 19.0333 188.021 19.0333H190.51V32.4752C190.51 33.9235 190.737 35.055 191.144 35.8696C191.551 36.639 192.094 37.2274 192.728 37.5895C193.407 37.9515 194.086 38.1778 194.765 38.2683C195.444 38.3589 196.077 38.4041 196.575 38.4041C197.48 38.4041 198.34 38.1778 199.11 37.7252C199.879 37.2726 200.286 36.6843 200.286 35.9601C200.286 35.3718 200.151 34.9192 199.834 34.6024C199.517 34.2856 199.2 34.1045 198.838 34.1045C198.476 34.1045 198.159 34.1498 197.888 34.2856C197.661 34.4213 197.345 34.4666 197.028 34.4666C196.711 34.4666 196.349 34.4213 196.032 34.2856C195.715 34.1498 195.489 33.9235 195.308 33.6067C195.127 33.2899 195.036 32.8373 195.036 32.2942V19.0333H198.657Z"
        fill="currentColor"></path>
    <path
        d="M159.737 17.4041C158.696 16.3631 157.519 15.5485 156.206 14.9601C154.894 14.3717 153.491 14.0549 151.997 14.0549C150.051 14.0549 148.241 14.5528 146.521 15.5937C144.801 16.5894 143.398 18.0377 142.312 19.9386C141.271 21.7942 140.728 24.0571 140.728 26.7274C140.728 29.0809 141.226 31.1628 142.221 33.0184C143.262 34.8288 144.665 36.277 146.521 37.318C148.377 38.3589 150.549 38.8568 153.038 38.8568C154.622 38.8568 156.116 38.54 157.519 37.9516C158.967 37.3632 160.099 36.6391 160.913 35.8697C161.592 35.3266 161.909 34.7382 161.909 34.0594C161.909 33.5615 161.728 33.1089 161.366 32.7468C161.004 32.3395 160.551 32.1585 160.008 32.1585C159.555 32.1585 159.103 32.2943 158.65 32.5658C158.288 32.8826 157.881 33.1994 157.383 33.5163C156.885 33.8331 156.297 34.1499 155.573 34.3762C154.849 34.6025 153.943 34.693 152.812 34.693C151.409 34.693 150.096 34.3762 148.92 33.6973C147.743 33.0184 146.792 32.0227 146.114 30.8007C145.616 29.8955 145.299 28.8546 145.163 27.7231H160.868C161.456 27.7231 161.999 27.5421 162.452 27.1347C162.905 26.7274 163.131 26.2296 163.176 25.6412C163.131 23.9666 162.814 22.4731 162.226 21.0701C161.637 19.6218 160.823 18.3998 159.737 17.4041ZM147.155 20.0744C147.833 19.4407 148.558 18.9881 149.372 18.7166C150.232 18.3998 151.092 18.264 151.997 18.264C153.038 18.264 153.989 18.4903 154.939 18.9429C155.889 19.3502 156.659 19.9838 157.293 20.7985C157.926 21.5679 158.288 22.5183 158.333 23.5593V23.8761H145.299C145.389 23.4235 145.48 22.9709 145.616 22.6089C146.023 21.5226 146.521 20.708 147.155 20.0744Z"
        fill="currentColor"></path>
    <path
        d="M182.547 14.6886C181.959 14.2812 181.28 14.0549 180.511 14.0549C179.56 14.0549 178.655 14.1907 177.795 14.5075C176.935 14.8243 176.166 15.2317 175.487 15.7748C174.808 16.3179 174.174 16.9515 173.677 17.6756C173.45 18.0377 173.224 18.3998 173.043 18.8071V16.9062C173.043 16.2274 172.817 15.6843 172.364 15.2769C171.957 14.8243 171.414 14.598 170.78 14.598C170.101 14.598 169.558 14.8243 169.151 15.2769C168.743 15.6843 168.517 16.2274 168.517 16.9062V36.096C168.517 36.7749 168.743 37.318 169.151 37.7706C169.558 38.1779 170.101 38.4042 170.78 38.4042C171.414 38.4042 171.957 38.1779 172.364 37.7706C172.817 37.318 173.043 36.7749 173.043 36.096V25.2339C173.043 24.1477 173.179 23.152 173.496 22.2921C173.812 21.4321 174.265 20.6627 174.808 20.0291C175.351 19.3502 175.94 18.8524 176.618 18.5356C177.297 18.2187 177.931 18.0377 178.565 18.0377C179.153 18.0377 179.651 18.1282 180.058 18.3545C180.465 18.5356 180.918 18.6261 181.371 18.6261C181.868 18.6261 182.366 18.445 182.774 18.083C183.181 17.6756 183.407 17.0873 183.407 16.2726C183.407 15.639 183.136 15.0959 182.547 14.6886Z"
        fill="currentColor"></path>
    <path
        d="M28.9003 45C27.766 45 26.681 44.2602 26.3357 43.0766C25.8919 41.6464 26.681 40.1175 28.1112 39.6737C30.9223 38.786 33.5362 37.2078 35.5582 35.0378C37.8268 32.6705 39.3557 29.7115 39.9968 26.5058C40.6379 23.3001 40.3913 19.9958 39.257 16.8888C38.1227 13.8311 36.15 11.1186 33.5855 9.1459C31.0209 7.12387 27.9139 5.89091 24.6589 5.54569C21.404 5.20046 18.149 5.79227 15.1899 7.22249C12.2308 8.65271 9.76493 10.872 8.03881 13.6831C6.31268 16.4449 5.37565 19.6506 5.37565 22.9549C5.37565 30.0074 9.61698 36.468 15.9297 39.0325L17.3106 39.5257C17.4092 39.575 17.5572 39.6244 17.6558 39.6244C19.086 40.0682 19.8751 41.5971 19.4312 43.0273C18.9874 44.4575 17.4585 45.2466 16.0283 44.8027C15.8804 44.7534 15.7324 44.7041 15.5845 44.6548L15.042 44.4575C14.9926 44.4575 14.9926 44.4575 14.9433 44.4082L14.0063 44.0136H13.957C5.62223 40.6107 0 32.128 0 22.9056C0 18.6149 1.18363 14.4229 3.45225 10.7734C5.72087 7.12386 8.97585 4.2141 12.8226 2.34002C16.6694 0.465945 20.9601 -0.323141 25.2507 0.12072C29.5414 0.564581 33.5855 2.19207 36.9391 4.80592C40.342 7.41977 42.9066 10.9707 44.3861 14.9654C45.8656 19.0095 46.2108 23.3494 45.3231 27.5415C44.4354 31.7335 42.4134 35.6296 39.4543 38.7366C36.7911 41.5478 33.3882 43.6684 29.6894 44.8027C29.4428 44.9507 29.1962 45 28.9003 45Z"
        fill="currentColor"></path>
</svg>
